<?xml version="1.0" encoding="utf-8"?>
<!-- Generator: Adobe Illustrator 14.0.0, SVG Export Plug-In . SVG Version: 6.00 Build 43363)  -->
<!DOCTYPE svg PUBLIC "-//W3C//DTD SVG 1.1//EN" "http://www.w3.org/Graphics/SVG/1.1/DTD/svg11.dtd">
<svg version="1.1" xmlns="http://www.w3.org/2000/svg" xmlns:xlink="http://www.w3.org/1999/xlink" x="0px" y="0px" width="1200px"
	 height="1200px" viewBox="0 0 1200 1200" enable-background="new 0 0 1200 1200" xml:space="preserve">
<g id="Layer_1_copy_2">
	<text transform="matrix(1 0 0 1 4849.853 -953.7251)" display="none" font-family="'Raleway-Light'" font-size="250.9037">Project Zero</text>
	<text transform="matrix(1 0 0 1 4849.853 -338.5938)" display="none" font-family="'Raleway-Light'" font-size="250.9037">Project Zero</text>
	
		<text transform="matrix(1 0 0 1 4849.853 274.7393)" display="none" fill="#FFFFFF" font-family="'Raleway-Light'" font-size="250.9037">Project Zero</text>
</g>
<g id="Layer_1_copy">
	<path fill="#EE2F54" d="M801.534,539.203v141.495c0,324.684-410.455,353.067-482.389,85.278L161.711,872.544
		c164.477,384.347,823.371,319.461,823.371-191.846V539.203c0-75.532-14.48-141.241-39.52-197.271L788.787,448.075
		C796.975,475.268,801.534,505.628,801.534,539.203"/>
	<path fill="#EE2F54" d="M895.45,321.976l-96.628,65.31c-50.284-100.916-158.077-144.402-257.108-129.487
		c-134.244-20.055-283.531,66.309-283.531,261.349v141.526c0,31.207,24.176,99.901,31.076,125.729l-96.271,65.179l-61.174,41.365
		c-23.439-54.906-57.141-159.189-57.141-232.272V519.146c0-309.859,240.789-455.265,467.546-436.967
		C688.762,93.837,829.277,173.941,895.45,321.976"/>
	<path fill="#48C3CD" d="M1137.646,539.208v141.511c0,309.49-241.562,455.402-468.567,436.989
		c-148.045-11.915-289.931-93.644-354.87-245.182l96.023-65.074C458.734,914.118,568.42,959.88,669.45,944.704h0.136
		C804.084,964.897,954,876.895,954,680.719V539.208c0-33.589-20.367-106.731-28.517-133.936l96.333-63.367l61.013-39.954
		C1107.9,357.988,1137.646,463.622,1137.646,539.208"/>
	<path fill="#48C3CD" d="M227.205,519.195v141.504c0,73.079,13.417,137.041,36.868,191.846L421.506,745.97
		c-6.902-25.709-10.757-54.09-10.757-85.271V519.195c0-320.481,402.495-345.007,479.786-88.403l157.396-106.095
		C879.297-52.742,227.205,9.277,227.205,519.195"/>
	<path fill="#0B1432" d="M1061.286,539.208v141.511c0,275.011-190.516,420.811-392.207,436.989
		c-173.364,14.15-355.119-67.566-431.08-245.182l157.44-106.562c3.89,14.66,8.895,28.578,14.792,41.487
		C458.734,914.118,568.42,959.88,669.45,944.704h0.136c109.173-16.537,208.189-104.535,208.189-263.985V539.208
		c0-33.589-4.501-63.94-12.785-91.133l156.825-106.17c5.889,13.037,11.156,26.696,15.793,40.87
		C1052.898,429.282,1061.286,481.287,1061.286,539.208"/>
	<path fill="#0B1432" d="M971.677,321.976L814.864,428.027c-4.385-14.55-9.785-28.082-16.042-40.742
		c-50.284-100.916-158.077-144.402-257.108-129.487C432.92,274.095,334.52,360.959,334.52,519.146v141.526
		c0,31.207,3.883,59.542,10.783,85.357L187.857,852.586c-5.648-13.295-10.653-27.083-15.163-41.368
		c-13.912-45-21.685-95.131-21.685-150.545V519.146c0-275.14,189.901-420.675,391.212-436.967
		C713.948,68.154,894.09,148.245,971.677,321.976"/>
</g>
</svg>
