<?xml version="1.0" encoding="utf-8"?>
<!-- Generator: Adobe Illustrator 14.0.0, SVG Export Plug-In . SVG Version: 6.00 Build 43363)  -->
<!DOCTYPE svg PUBLIC "-//W3C//DTD SVG 1.1//EN" "http://www.w3.org/Graphics/SVG/1.1/DTD/svg11.dtd">
<svg version="1.1" id="Layer_1_copy_2" xmlns="http://www.w3.org/2000/svg" xmlns:xlink="http://www.w3.org/1999/xlink" x="0px"
	 y="0px" width="2132px" height="521.534px" viewBox="0 0 2132 521.534" enable-background="new 0 0 2132 521.534"
	 xml:space="preserve">
<text transform="matrix(1 0 0 1 587.5176 -870.5229)" display="none" font-family="'Raleway-Light'" font-size="250.9037">Project Zero</text>
<text transform="matrix(1 0 0 1 587.5176 -255.3916)" display="none" font-family="'Raleway-Light'" font-size="250.9037">Project Zero</text>
<path fill="#EE2F54" d="M346.139,235.342v48.537c0,111.381-140.805,121.117-165.481,29.254l-54.007,36.559
	c56.423,131.846,282.452,109.586,282.452-65.813v-48.537c0-25.912-4.967-48.453-13.557-67.674l-53.781,36.412
	C344.574,213.408,346.139,223.824,346.139,235.342"/>
<path fill="#EE2F54" d="M378.355,160.822l-33.148,22.404c-17.249-34.619-54.227-49.537-88.199-44.42
	c-46.052-6.881-97.264,22.746-97.264,89.654v48.549c0,10.707,8.294,34.271,10.66,43.131l-33.025,22.357l-20.985,14.191
	c-8.04-18.836-19.602-54.607-19.602-79.68v-48.549c0-106.295,82.602-156.176,160.389-149.898
	C307.452,82.561,355.654,110.039,378.355,160.822"/>
<path fill="#48C3CD" d="M461.439,235.344v48.543c0,106.168-82.866,156.221-160.74,149.904
	c-50.785-4.088-99.458-32.123-121.735-84.107l32.939-22.322c16.639,36.592,54.267,52.289,88.924,47.084h0.046
	c46.14,6.928,97.568-23.262,97.568-90.559v-48.543c0-11.523-6.988-36.615-9.784-45.947l33.046-21.736l20.932-13.707
	C451.235,173.176,461.439,209.414,461.439,235.344"/>
<path fill="#48C3CD" d="M149.118,228.479v48.541c0,25.068,4.603,47.012,12.646,65.811l54.007-36.559
	c-2.367-8.82-3.689-18.555-3.689-29.252v-48.541c0-109.939,138.072-118.354,164.586-30.328l53.994-36.395
	C372.814,32.277,149.118,53.553,149.118,228.479"/>
<path fill="#FFFFFF" d="M435.244,235.344v48.543c0,94.34-65.355,144.355-134.545,149.904
	c-59.471,4.854-121.82-23.178-147.879-84.107l54.01-36.555c1.334,5.029,3.051,9.805,5.073,14.232
	c16.639,36.592,54.267,52.289,88.924,47.084h0.046c37.452-5.674,71.42-35.861,71.42-90.559v-48.543
	c0-11.523-1.545-21.936-4.387-31.264l53.797-36.42c2.021,4.471,3.828,9.156,5.42,14.018
	C432.367,197.633,435.244,215.475,435.244,235.344"/>
<path fill="#FFFFFF" d="M404.504,160.822l-53.793,36.381c-1.505-4.992-3.357-9.633-5.504-13.977
	c-17.249-34.619-54.227-49.537-88.199-44.42c-37.32,5.59-71.076,35.389-71.076,89.654v48.549c0,10.707,1.332,20.426,3.699,29.283
	l-54.012,36.551c-1.938-4.561-3.653-9.289-5.201-14.189c-4.772-15.438-7.438-32.635-7.438-51.645v-48.549
	c0-94.385,65.145-144.311,134.203-149.898C316.093,73.75,377.889,101.225,404.504,160.822"/>
<g>
	<path fill="#FFFFFF" d="M610.852,357.941V179.8h73.264c7.527,0,14.467,1.592,20.825,4.767c6.355,3.18,11.832,7.402,16.435,12.672
		c4.599,5.268,8.193,11.207,10.788,17.813c2.592,6.61,3.89,13.259,3.89,19.946c0,7.194-1.216,14.137-3.639,20.826
		c-2.427,6.691-5.856,12.631-10.287,17.813c-4.434,5.187-9.745,9.327-15.932,12.42c-6.19,3.097-13.047,4.642-20.574,4.642h-61.974
		v67.242H610.852z M623.647,278.906h61.472c5.854,0,11.122-1.211,15.807-3.638c4.682-2.423,8.656-5.685,11.918-9.785
		c3.262-4.097,5.771-8.782,7.527-14.051s2.635-10.745,2.635-16.435c0-5.853-1.047-11.416-3.137-16.685
		c-2.094-5.269-4.936-9.911-8.53-13.925c-3.6-4.015-7.778-7.19-12.546-9.535c-4.767-2.34-9.828-3.512-15.18-3.512h-59.966V278.906z"
		/>
	<path fill="#FFFFFF" d="M824.618,238.762c-11.71,0.338-21.954,3.807-30.736,10.413c-8.781,6.609-14.929,15.681-18.441,27.224
		v81.543h-12.545v-130.47h12.044v32.116c4.516-9.197,10.494-16.686,17.939-22.457c7.44-5.771,15.431-9.071,23.961-9.91
		c1.67-0.164,3.176-0.251,4.517-0.251c1.337,0,2.423,0,3.262,0V238.762z"/>
	<path fill="#FFFFFF" d="M896.629,360.451c-9.201,0-17.688-1.801-25.467-5.395c-7.778-3.596-14.514-8.488-20.198-14.679
		c-5.688-6.187-10.122-13.38-13.298-21.577c-3.179-8.193-4.767-16.811-4.767-25.844c0-9.197,1.631-17.896,4.893-26.094
		c3.262-8.193,7.734-15.387,13.423-21.578c5.685-6.186,12.42-11.078,20.198-14.678c7.778-3.595,16.184-5.395,25.216-5.395
		s17.395,1.8,25.09,5.395c7.692,3.6,14.428,8.492,20.198,14.678c5.771,6.191,10.287,13.385,13.549,21.578
		c3.262,8.197,4.893,16.896,4.893,26.094c0,9.033-1.631,17.65-4.893,25.844c-3.262,8.197-7.739,15.391-13.424,21.577
		c-5.688,6.19-12.419,11.083-20.197,14.679C914.066,358.65,905.661,360.451,896.629,360.451z M845.444,293.459
		c0,7.695,1.337,14.929,4.015,21.703c2.674,6.774,6.312,12.671,10.914,17.689c4.599,5.018,9.993,8.992,16.184,11.918
		c6.187,2.928,12.796,4.391,19.821,4.391s13.631-1.463,19.821-4.391c6.187-2.926,11.624-6.982,16.309-12.17
		c4.682-5.182,8.362-11.164,11.04-17.939c2.674-6.773,4.015-14.09,4.015-21.953c0-7.692-1.341-14.93-4.015-21.703
		c-2.678-6.775-6.358-12.711-11.04-17.814c-4.685-5.101-10.079-9.158-16.183-12.169c-6.108-3.011-12.671-4.517-19.696-4.517
		s-13.635,1.506-19.821,4.517c-6.19,3.011-11.585,7.111-16.184,12.294c-4.603,5.187-8.279,11.252-11.04,18.19
		C846.824,278.448,845.444,285.768,845.444,293.459z"/>
	<path fill="#FFFFFF" d="M968.387,402.352c-5.352,0-10.326-0.714-14.929-2.133c-4.599-1.424-8.739-3.807-12.42-7.15l6.774-8.28
		c2.846,2.341,5.939,3.929,9.283,4.767c3.348,0.836,6.692,1.255,10.036,1.255c3.18,0,6.272-0.627,9.283-1.882
		c3.011-1.254,5.685-3.011,8.029-5.269c2.341-2.259,4.266-4.937,5.771-8.029c1.506-3.097,2.259-6.483,2.259-10.161V227.472h12.545
		v137.495c0,5.52-1.047,10.538-3.137,15.055c-2.093,4.516-4.893,8.443-8.405,11.792c-3.513,3.345-7.444,5.936-11.792,7.778
		C977.333,401.43,972.902,402.352,968.387,402.352z M992.474,197.865v-23.084h12.545v23.084H992.474z"/>
	<path fill="#FFFFFF" d="M1099.606,360.451c-9.201,0-17.732-1.801-25.593-5.395c-7.864-3.596-14.678-8.531-20.448-14.804
		s-10.287-13.506-13.549-21.704c-3.262-8.193-4.893-16.975-4.893-26.344c0-9.197,1.631-17.854,4.893-25.969
		c3.262-8.111,7.734-15.219,13.423-21.327c5.685-6.104,12.42-10.914,20.198-14.427s16.184-5.27,25.216-5.27
		c9.197,0,17.728,1.8,25.592,5.395c7.86,3.6,14.635,8.449,20.323,14.553c5.685,6.107,10.119,13.216,13.298,21.326
		c3.176,8.115,4.768,16.686,4.768,25.719c0,0.838,0,1.881,0,3.136s-0.086,2.05-0.251,2.384h-114.412
		c0.502,7.527,2.258,14.514,5.269,20.95c3.012,6.441,6.814,12.005,11.417,16.685c4.598,4.686,9.91,8.367,15.932,11.041
		c6.021,2.678,12.459,4.014,19.32,4.014c4.516,0,8.946-0.627,13.298-1.881c4.348-1.256,8.405-2.969,12.168-5.145
		c3.764-2.172,7.108-4.807,10.036-7.903c2.925-3.093,5.227-6.479,6.9-10.161l11.04,3.011c-1.843,4.685-4.56,8.993-8.154,12.921
		c-3.6,3.933-7.778,7.32-12.546,10.162c-4.767,2.846-9.997,5.061-15.682,6.648C1111.48,359.654,1105.628,360.451,1099.606,360.451z
		 M1150.79,287.688c-0.501-7.692-2.219-14.718-5.144-21.076c-2.928-6.354-6.691-11.831-11.29-16.435
		c-4.603-4.598-9.911-8.193-15.933-10.788c-6.021-2.592-12.463-3.89-19.319-3.89c-6.86,0-13.298,1.298-19.319,3.89
		c-6.022,2.595-11.334,6.19-15.933,10.788c-4.603,4.604-8.28,10.123-11.04,16.561c-2.76,6.441-4.391,13.423-4.893,20.95H1150.79z"/>
	<path fill="#FFFFFF" d="M1181.399,292.205c0-9.197,1.588-17.896,4.767-26.094c3.176-8.194,7.61-15.306,13.298-21.328
		c5.685-6.021,12.459-10.788,20.323-14.301c7.86-3.513,16.474-5.27,25.844-5.27c11.875,0,22.33,2.678,31.362,8.029
		c9.033,5.355,15.808,12.797,20.323,22.33l-12.294,4.016c-3.85-7.191-9.326-12.836-16.435-16.937
		c-7.111-4.097-14.929-6.147-23.459-6.147c-7.194,0-13.886,1.424-20.072,4.266c-6.19,2.846-11.585,6.774-16.184,11.793
		c-4.603,5.018-8.24,10.914-10.914,17.688c-2.678,6.775-4.015,14.094-4.015,21.955c0,7.863,1.38,15.266,4.14,22.205
		c2.761,6.942,6.438,12.965,11.04,18.064c4.599,5.104,10.036,9.158,16.309,12.169s12.922,4.517,19.947,4.517
		c4.517,0,8.989-0.667,13.423-2.008c4.431-1.336,8.531-3.093,12.295-5.269c3.764-2.172,7.025-4.724,9.785-7.653
		c2.76-2.924,4.642-5.979,5.646-9.157l12.294,3.513c-1.674,4.516-4.227,8.742-7.652,12.67c-3.431,3.933-7.488,7.32-12.169,10.162
		c-4.685,2.846-9.872,5.061-15.557,6.648c-5.688,1.588-11.541,2.385-17.563,2.385c-9.201,0-17.732-1.801-25.593-5.395
		c-7.864-3.596-14.678-8.531-20.448-14.804s-10.287-13.506-13.549-21.704C1183.03,310.355,1181.399,301.574,1181.399,292.205z"/>
	<path fill="#FFFFFF" d="M1385.384,351.669c-0.671,0.337-1.8,0.964-3.388,1.882c-1.591,0.921-3.599,1.799-6.021,2.635
		c-2.427,0.838-5.144,1.592-8.154,2.258s-6.272,1.004-9.785,1.004s-6.817-0.502-9.911-1.506c-3.097-1.004-5.813-2.51-8.154-4.516
		c-2.344-2.008-4.183-4.431-5.52-7.277c-1.341-2.842-2.007-6.186-2.007-10.035v-98.355h-18.316v-10.286h18.316v-44.661h12.545
		v44.661h30.359v10.286h-30.359v95.344c0,4.854,1.67,8.492,5.018,10.914c3.345,2.428,7.108,3.639,11.291,3.639
		c5.183,0,9.66-0.878,13.424-2.635c3.763-1.756,6.061-2.885,6.899-3.387L1385.384,351.669z"/>
	<path fill="#FFFFFF" d="M1459.897,347.403l126.706-156.062h-124.95V179.8h140.005v10.538L1475.955,346.4h125.201v11.541h-141.259
		V347.403z"/>
	<path fill="#FFFFFF" d="M1680.192,360.451c-9.201,0-17.732-1.801-25.593-5.395c-7.864-3.596-14.678-8.531-20.448-14.804
		s-10.287-13.506-13.549-21.704c-3.262-8.193-4.893-16.975-4.893-26.344c0-9.197,1.631-17.854,4.893-25.969
		c3.262-8.111,7.734-15.219,13.423-21.327c5.685-6.104,12.42-10.914,20.198-14.427s16.184-5.27,25.216-5.27
		c9.197,0,17.728,1.8,25.592,5.395c7.86,3.6,14.635,8.449,20.323,14.553c5.685,6.107,10.119,13.216,13.298,21.326
		c3.176,8.115,4.768,16.686,4.768,25.719c0,0.838,0,1.881,0,3.136s-0.086,2.05-0.251,2.384h-114.412
		c0.502,7.527,2.258,14.514,5.269,20.95c3.012,6.441,6.814,12.005,11.417,16.685c4.598,4.686,9.91,8.367,15.932,11.041
		c6.021,2.678,12.459,4.014,19.32,4.014c4.516,0,8.946-0.627,13.298-1.881c4.348-1.256,8.405-2.969,12.168-5.145
		c3.764-2.172,7.108-4.807,10.036-7.903c2.925-3.093,5.227-6.479,6.9-10.161l11.04,3.011c-1.843,4.685-4.56,8.993-8.154,12.921
		c-3.6,3.933-7.778,7.32-12.546,10.162c-4.767,2.846-9.997,5.061-15.682,6.648C1692.066,359.654,1686.214,360.451,1680.192,360.451z
		 M1731.376,287.688c-0.501-7.692-2.219-14.718-5.144-21.076c-2.928-6.354-6.691-11.831-11.29-16.435
		c-4.603-4.598-9.911-8.193-15.933-10.788c-6.021-2.592-12.463-3.89-19.319-3.89c-6.86,0-13.298,1.298-19.319,3.89
		c-6.022,2.595-11.334,6.19-15.933,10.788c-4.603,4.604-8.28,10.123-11.04,16.561c-2.76,6.441-4.391,13.423-4.893,20.95H1731.376z"
		/>
	<path fill="#FFFFFF" d="M1832.74,238.762c-11.71,0.338-21.954,3.807-30.736,10.413c-8.781,6.609-14.929,15.681-18.441,27.224
		v81.543h-12.545v-130.47h12.044v32.116c4.516-9.197,10.494-16.686,17.939-22.457c7.44-5.771,15.431-9.071,23.961-9.91
		c1.67-0.164,3.176-0.251,4.517-0.251c1.337,0,2.423,0,3.262,0V238.762z"/>
	<path fill="#FFFFFF" d="M1904.751,360.451c-9.201,0-17.688-1.801-25.467-5.395c-7.778-3.596-14.514-8.488-20.198-14.679
		c-5.688-6.187-10.122-13.38-13.298-21.577c-3.179-8.193-4.767-16.811-4.767-25.844c0-9.197,1.631-17.896,4.893-26.094
		c3.262-8.193,7.734-15.387,13.423-21.578c5.685-6.186,12.42-11.078,20.198-14.678c7.778-3.595,16.184-5.395,25.216-5.395
		s17.395,1.8,25.09,5.395c7.692,3.6,14.428,8.492,20.198,14.678c5.771,6.191,10.287,13.385,13.549,21.578
		c3.262,8.197,4.893,16.896,4.893,26.094c0,9.033-1.631,17.65-4.893,25.844c-3.262,8.197-7.739,15.391-13.424,21.577
		c-5.688,6.19-12.419,11.083-20.197,14.679C1922.188,358.65,1913.783,360.451,1904.751,360.451z M1853.566,293.459
		c0,7.695,1.337,14.929,4.015,21.703c2.674,6.774,6.312,12.671,10.914,17.689c4.599,5.018,9.993,8.992,16.184,11.918
		c6.187,2.928,12.796,4.391,19.821,4.391s13.631-1.463,19.821-4.391c6.187-2.926,11.624-6.982,16.309-12.17
		c4.682-5.182,8.362-11.164,11.04-17.939c2.674-6.773,4.015-14.09,4.015-21.953c0-7.692-1.341-14.93-4.015-21.703
		c-2.678-6.775-6.358-12.711-11.04-17.814c-4.685-5.101-10.079-9.158-16.183-12.169c-6.108-3.011-12.671-4.517-19.696-4.517
		s-13.635,1.506-19.821,4.517c-6.19,3.011-11.585,7.111-16.184,12.294c-4.603,5.187-8.279,11.252-11.04,18.19
		C1854.946,278.448,1853.566,285.768,1853.566,293.459z"/>
</g>
</svg>
