<?xml version="1.0" encoding="utf-8"?>
<!-- Generator: Adobe Illustrator 14.0.0, SVG Export Plug-In . SVG Version: 6.00 Build 43363)  -->
<!DOCTYPE svg PUBLIC "-//W3C//DTD SVG 1.1//EN" "http://www.w3.org/Graphics/SVG/1.1/DTD/svg11.dtd">
<svg version="1.1" xmlns="http://www.w3.org/2000/svg" xmlns:xlink="http://www.w3.org/1999/xlink" x="0px" y="0px" width="1600px"
	 height="1200px" viewBox="0 0 1600 1200" enable-background="new 0 0 1600 1200" xml:space="preserve">
<g id="Layer_2">
	<rect fill="#0B1432" width="1600" height="1200"/>
</g>
<g id="Layer_1" display="none">
	<path display="inline" fill="#EE2F54" d="M931.832,556.851v95.348c0,218.796-276.594,237.923-325.067,57.467l-106.09,71.813
		c110.836,259,554.844,215.275,554.844-129.279v-95.348c0-50.899-9.757-95.178-26.63-132.937l-105.647,71.527
		C928.76,513.765,931.832,534.226,931.832,556.851"/>
	<path display="inline" fill="#EE2F54" d="M995.119,410.466l-65.116,44.01c-33.884-68.003-106.522-97.308-173.257-87.256
		c-90.463-13.515-191.063,44.682-191.063,176.115v95.371c0,21.029,16.292,67.32,20.941,84.724l-64.875,43.922l-41.223,27.876
		c-15.795-37.001-38.506-107.273-38.506-156.521v-95.371c0-208.806,162.26-306.79,315.066-294.458
		C855.838,256.731,950.526,310.711,995.119,410.466"/>
	<path display="inline" fill="#48C3CD" d="M1158.328,556.854v95.359c0,208.557-162.782,306.882-315.755,294.474
		c-99.762-8.029-195.375-63.103-239.136-165.221l64.707-43.851c32.685,71.879,106.599,102.717,174.679,92.49h0.092
		c90.636,13.607,191.659-45.695,191.659-177.893v-95.359c0-22.635-13.725-71.923-19.218-90.255l64.916-42.701l41.115-26.924
		C1138.283,434.734,1158.328,505.918,1158.328,556.854"/>
	<path display="inline" fill="#48C3CD" d="M544.808,543.368v95.354c0,49.246,9.041,92.349,24.844,129.279l106.09-71.818
		c-4.651-17.323-7.249-36.448-7.249-57.461v-95.354c0-215.963,271.229-232.49,323.313-59.573l106.064-71.494
		C984.234,157.956,544.808,199.749,544.808,543.368"/>
	<path display="inline" fill="#0B1432" d="M1106.871,556.854v95.359c0,185.322-128.383,283.572-264.298,294.474
		c-116.824,9.535-239.303-45.53-290.491-165.221l106.095-71.809c2.621,9.879,5.994,19.259,9.968,27.958
		c32.685,71.879,106.599,102.717,174.679,92.49h0.092c73.568-11.146,140.294-70.444,140.294-177.893v-95.359
		c0-22.635-3.033-43.088-8.615-61.413l105.679-71.543c3.97,8.785,7.518,17.99,10.644,27.54
		C1101.218,482.777,1106.871,517.823,1106.871,556.854"/>
	<path display="inline" fill="#0B1432" d="M1046.486,410.466l-105.672,71.465c-2.955-9.805-6.595-18.923-10.812-27.456
		c-33.884-68.003-106.522-97.308-173.257-87.256c-73.312,10.981-139.622,69.517-139.622,176.115v95.371
		c0,21.029,2.617,40.122,7.267,57.52l-106.098,71.804c-3.806-8.959-7.179-18.249-10.218-27.876
		c-9.375-30.324-14.613-64.105-14.613-101.447v-95.371c0-185.408,127.969-283.481,263.626-294.458
		C872.811,239.424,994.202,293.395,1046.486,410.466"/>
</g>
<g id="Layer_1_copy_2">
	<text transform="matrix(1 0 0 1 2276.5176 357.9419)" display="none" font-family="'Raleway-Light'" font-size="250.9037">Project Zero</text>
	<text transform="matrix(1 0 0 1 2276.5176 973.0732)" display="none" font-family="'Raleway-Light'" font-size="250.9037">Project Zero</text>
	
		<text transform="matrix(1 0 0 1 2276.5176 1586.4063)" display="none" fill="#FFFFFF" font-family="'Raleway-Light'" font-size="250.9037">Project Zero</text>
</g>
<g id="Layer_1_copy">
	<path fill="#EE2F54" d="M931.832,556.851v95.349c0,218.795-276.594,237.922-325.067,57.467l-106.09,71.813
		c110.836,259,554.845,215.275,554.845-129.279v-95.349c0-50.899-9.758-95.178-26.631-132.937l-105.646,71.527
		C928.76,513.765,931.832,534.226,931.832,556.851"/>
	<path fill="#EE2F54" d="M995.119,410.466l-65.115,44.01c-33.885-68.003-106.523-97.308-173.258-87.256
		c-90.463-13.515-191.063,44.682-191.063,176.115v95.371c0,21.029,16.292,67.32,20.941,84.725l-64.875,43.922l-41.223,27.875
		c-15.795-37-38.506-107.273-38.506-156.521v-95.371c0-208.806,162.26-306.79,315.066-294.458
		C855.838,256.731,950.527,310.711,995.119,410.466"/>
	<path fill="#48C3CD" d="M1158.328,556.854v95.359c0,208.557-162.781,306.883-315.754,294.475
		c-99.763-8.029-195.376-63.104-239.137-165.221l64.707-43.852c32.685,71.879,106.599,102.717,174.68,92.49h0.092
		c90.635,13.607,191.658-45.695,191.658-177.893v-95.359c0-22.635-13.725-71.923-19.217-90.255l64.916-42.701l41.115-26.924
		C1138.283,434.734,1158.328,505.918,1158.328,556.854"/>
	<path fill="#48C3CD" d="M544.808,543.368v95.354c0,49.246,9.041,92.348,24.844,129.279l106.09-71.818
		c-4.651-17.324-7.249-36.449-7.249-57.461v-95.354c0-215.963,271.229-232.49,323.313-59.573l106.064-71.494
		C984.234,157.956,544.808,199.749,544.808,543.368"/>
	<path fill="#FFFFFF" d="M1106.871,556.854v95.359c0,185.322-128.383,283.572-264.297,294.475
		c-116.825,9.535-239.304-45.531-290.492-165.221l106.095-71.809c2.621,9.879,5.994,19.258,9.968,27.957
		c32.685,71.879,106.599,102.717,174.68,92.49h0.092c73.568-11.145,140.293-70.443,140.293-177.893v-95.359
		c0-22.635-3.033-43.088-8.615-61.413l105.68-71.543c3.969,8.785,7.518,17.99,10.643,27.54
		C1101.219,482.777,1106.871,517.823,1106.871,556.854"/>
	<path fill="#FFFFFF" d="M1046.486,410.466l-105.672,71.465c-2.955-9.805-6.594-18.923-10.811-27.456
		c-33.885-68.003-106.523-97.308-173.258-87.256c-73.312,10.981-139.622,69.517-139.622,176.115v95.371
		c0,21.029,2.617,40.123,7.267,57.52l-106.098,71.805c-3.806-8.959-7.179-18.25-10.218-27.877
		c-9.375-30.324-14.613-64.105-14.613-101.447v-95.371c0-185.408,127.969-283.481,263.626-294.458
		C872.811,239.424,994.203,293.395,1046.486,410.466"/>
</g>
</svg>
